HIERARCHY
ROOT hip
{
	OFFSET 0.000000 0.000000 0.000000 
	CHANNELS 6 Xposition Yposition Zposition Xrotation Zrotation Yrotation
	JOINT abdomen
	{
		OFFSET 0.000000 3.402643 0.000000 
		CHANNELS 3 Xrotation Zrotation Yrotation
		JOINT chest
		{
			OFFSET 0.000000 8.438565 -0.680529 
			CHANNELS 3 Xrotation Zrotation Yrotation
			JOINT neck
			{
				OFFSET 0.000000 10.207942 -0.272212 
				CHANNELS 3 Xrotation Zrotation Yrotation
				JOINT head
				{
					OFFSET 0.000000 3.130431 0.000000 
					CHANNELS 3 Xrotation Zrotation Yrotation
					End Site
					{
						OFFSET 0.000000 3.130435 0.000000 
					}
				}
			}
			JOINT lCollar
			{
				OFFSET 3.470700 6.669187 -0.816635 
				CHANNELS 3 Yrotation Zrotation Xrotation
				JOINT lShldr
				{
					OFFSET 3.198488 0.000000 0.000000 
					CHANNELS 3 Zrotation Yrotation Xrotation
					JOINT lForeArm
					{
						OFFSET 10.139888 0.000000 0.000000 
						CHANNELS 3 Yrotation Zrotation Xrotation
						JOINT lHand
						{
							OFFSET 8.370511 0.000000 0.000000 
							CHANNELS 3 Zrotation Yrotation Xrotation
							End Site
							{
								OFFSET 4.083176 0.000000 0.000000 
							}
						}
					}
				}
			}
			JOINT rCollar
			{
				OFFSET -3.470700 6.669187 -0.816635 
				CHANNELS 3 Yrotation Zrotation Xrotation
				JOINT rShldr
				{
					OFFSET -3.198488 0.000000 0.000000 
					CHANNELS 3 Zrotation Yrotation Xrotation
					JOINT rForeArm
					{
						OFFSET -10.139888 0.000000 0.000000 
						CHANNELS 3 Yrotation Zrotation Xrotation
						JOINT rHand
						{
							OFFSET -8.370511 0.000000 0.000000 
							CHANNELS 3 Zrotation Yrotation Xrotation
							End Site
							{
								OFFSET -4.083176 0.000000 0.000000 
							}
						}
					}
				}
			}
		}
	}
	JOINT lThigh
	{
		OFFSET 5.308129 -1.633274 1.361059 
		CHANNELS 3 Xrotation Zrotation Yrotation
		JOINT lShin
		{
			OFFSET -2.041588 -20.007561 0.000000 
			CHANNELS 3 Xrotation Zrotation Yrotation
			JOINT lFoot
			{
				OFFSET 0.000000 -19.190928 -1.224953 
				CHANNELS 3 Xrotation Yrotation Zrotation
				End Site
				{
					OFFSET 0.000000 -2.449906 4.627600 
				}
			}
		}
	}
	JOINT rThigh
	{
		OFFSET -5.308129 -1.633274 1.361059 
		CHANNELS 3 Xrotation Zrotation Yrotation
		JOINT rShin
		{
			OFFSET 2.041588 -20.007561 0.000000 
			CHANNELS 3 Xrotation Zrotation Yrotation
			JOINT rFoot
			{
				OFFSET 0.000000 -19.190928 -1.224953 
				CHANNELS 3 Xrotation Yrotation Zrotation
				End Site
				{
					OFFSET 0.000000 -2.449906 4.627600 
				}
			}
		}
	}
}
MOTION
Frames: 14
Frame Time: 0.066667
0.641842 34.875301 3.339313 2.897287 0.000000 7.482158 0.430801 0.333222 -6.742507 4.609120 0.910174 -9.248650 -2.377141 -0.240000 0.744244 0.000000 -2.648858 6.039157 -11.174916 8.652816 0.890324 -76.816643 -29.919739 3.103372 -33.933628 -0.478538 17.298309 1.674494 -5.335699 0.117753 -4.885733 -0.033612 -0.692277 71.678360 -20.001812 7.167943 40.215660 0.115472 22.649368 -7.358183 3.572757 0.034131 -5.396317 0.928876 -1.702991 73.763252 -5.440882 -10.065004 -24.316217 0.113071 7.983147 -62.949543 -6.621937 -4.180454 68.666382 1.963395 5.506082 -12.311777 -7.459258 3.374904 
0.455915 34.065926 3.339313 3.124152 2.342854 7.817681 1.147926 -0.907446 -5.570508 6.059073 0.017594 -7.282523 -2.504169 -0.076075 0.391899 3.752645 -2.208714 3.227542 -9.169881 6.421104 0.782145 -77.886192 -29.794708 7.635624 -39.063068 -0.447095 18.092659 5.387487 -10.011127 0.262624 -3.612774 3.165200 -0.212270 71.658997 -15.614456 2.066000 35.112934 0.108184 16.395269 -10.380535 3.198788 -0.074877 -6.904335 0.449920 -0.217833 94.615074 -3.771536 -7.799075 -35.190243 -2.088166 4.034979 -53.730846 -4.022747 -2.276863 67.268898 -1.123118 3.333734 -22.564417 -6.009730 -2.214987 
0.244625 34.141460 3.339312 3.494508 4.221726 6.691026 2.162586 -3.054008 -2.538661 8.085086 -0.129455 -4.588357 -2.570959 -0.258941 0.153810 4.679758 -1.701374 0.249937 -6.114645 5.047544 0.229410 -79.612778 -24.233347 8.575253 -42.088665 -0.401814 20.613359 8.876274 -10.470125 0.204474 -0.686623 4.720989 -2.374098 71.622818 -8.881077 -3.452366 30.116064 0.106055 13.341949 -9.199884 -0.116002 -0.080110 -16.032761 -0.796289 3.173265 109.373131 -2.212251 -6.537506 -35.718513 -1.070741 1.949952 -47.453056 -4.309126 0.257777 73.669098 0.771848 4.312391 -32.263729 -5.917493 -6.243185 
0.056561 35.045929 3.339310 2.789252 5.264523 3.323119 2.240251 -4.328279 -0.568165 9.697883 -0.465907 -1.141199 -2.651755 -0.417305 -0.076878 2.083274 -0.955980 -1.694913 -2.833861 5.213151 -0.082551 -79.766960 -12.672472 4.117524 -40.622509 -0.355505 18.822699 8.945974 -7.747722 0.165468 3.032143 2.052076 -5.170218 72.118080 -0.854102 -4.208648 28.368502 0.103105 11.220228 -5.351832 -4.469508 -0.288499 -36.666302 -3.291852 8.549764 124.118057 -0.179867 -8.386726 -39.614075 7.941798 5.070656 -39.022953 -4.762903 2.508943 75.252945 3.114967 6.382747 -36.185371 -5.564072 -8.849608 
-0.069890 35.856281 3.339313 2.182786 5.264728 -0.720651 0.061582 -4.178207 1.336669 10.065976 -0.840111 2.480420 -2.455179 -0.389481 -0.322673 -2.082536 0.082872 -3.074306 0.350434 6.027373 1.113275 -78.225868 -0.823998 -0.709787 -39.312290 -0.320818 18.892267 8.895352 -4.160820 0.139137 6.266898 -4.072727 -6.423964 73.536667 7.488642 -1.466069 33.406319 0.092111 11.457588 -4.242928 -1.332389 0.041279 -62.570023 -2.331412 8.862473 107.284500 -1.349455 -10.223616 -20.963495 11.486656 2.189347 -32.332348 -2.918772 4.120568 78.526627 1.187898 5.516030 -40.006092 -4.271104 -7.970997 
-0.105512 36.265995 3.339313 2.269062 4.222300 -4.203755 -2.853590 -3.170147 3.107783 8.947571 -1.658924 5.555027 -1.922228 -0.288296 -0.502824 -4.679576 1.897788 -4.003234 3.220761 7.121406 1.487108 -77.169266 9.005361 -2.948570 -39.481358 -0.310402 18.688257 10.635145 -1.024948 0.221860 7.760993 -6.706635 -6.686132 74.505875 14.773009 1.160741 36.606640 0.065848 14.852861 -3.389848 -0.681787 0.017640 -63.354649 -2.589465 5.929328 80.777184 -0.336103 -5.900692 -12.173260 8.121394 0.720217 -24.076962 -0.350762 4.888724 77.844162 -1.162672 4.053534 -39.570263 -2.152287 -6.271939 
-0.043669 35.901493 3.339313 2.834520 2.343683 -6.859416 -3.703560 -1.277568 4.462970 7.361105 -2.092518 7.362402 -0.873734 -0.255984 -0.589314 -3.753155 3.141882 -4.303267 5.180812 7.999850 0.509696 -78.419411 16.238544 -2.790171 -38.624588 -0.336860 18.987307 12.111930 2.065593 0.320998 7.364004 -7.444950 -5.714610 74.433472 20.085108 3.255852 39.307220 0.017163 18.999321 -2.160620 2.946087 0.289138 -62.139164 0.334127 4.435000 66.644630 -1.411429 -4.124923 -12.518339 8.041244 1.878288 -14.923296 1.007024 5.867267 74.942772 -0.677441 3.669247 -39.471169 -0.376178 -4.177757 
0.108023 34.974567 3.339313 3.379664 0.000000 -7.945561 -1.778477 0.652350 5.268704 6.948176 -1.957942 7.266491 0.430257 -0.416739 -0.551508 0.000000 3.426236 -3.983549 5.754012 8.092662 -0.292485 -80.291779 18.618420 -0.693459 -36.030773 -0.394590 19.465223 11.449932 6.178268 0.349239 6.123290 -6.983417 -3.584386 74.222595 22.884636 4.791093 42.231495 -0.036775 20.971445 -1.588188 9.154806 0.716410 -66.531059 3.970243 6.105168 71.678566 -1.233023 -4.980468 -16.991711 7.162308 2.993907 -8.021410 0.384378 3.807507 79.322800 0.626777 4.727937 -37.327679 -1.502786 -1.659872 
0.308531 34.124668 3.339313 3.490504 -2.342854 -7.140928 0.348599 1.460189 4.748860 7.959727 -2.145036 5.293913 1.230460 -1.400082 -0.056793 3.752645 3.056837 -3.200820 4.847564 6.783337 -0.360789 -82.214493 14.476839 1.735906 -31.878422 -0.452432 19.557659 9.618281 9.079800 0.318110 4.588305 -4.518336 -1.943919 75.100800 23.250097 5.002136 41.026421 -0.053969 19.823156 -2.170945 5.636796 0.392537 -56.129807 4.512280 8.660566 68.604744 1.531547 -3.032170 -20.204926 0.088221 5.689414 -5.573058 -0.688090 -1.935353 87.424004 0.377584 5.500168 -28.960016 -3.568726 0.162381 
0.504688 34.180172 3.339313 3.359451 -4.221726 -4.915662 1.793037 1.570994 3.285178 9.298393 -2.108626 2.437474 1.439118 -2.263874 0.053280 4.679758 2.387139 -1.926963 2.782458 6.172672 -0.451711 -82.688576 6.212943 0.243208 -28.315641 -0.500405 18.160931 7.844970 7.776752 0.199483 2.273228 -3.896878 -0.937772 76.839249 19.301825 4.067423 36.905071 -0.039076 18.350391 -3.918144 2.690542 0.353385 -50.965530 5.116656 6.344025 75.308121 1.178360 -2.862908 -25.237583 -2.689112 6.683143 -13.853624 -2.018399 -8.415091 106.240417 -0.650740 5.414004 -30.250282 -3.912896 -0.754863 
0.663299 35.034599 3.339313 3.097965 -5.264523 -2.118442 1.909090 1.844392 1.059924 9.608986 -1.192979 -0.530777 1.151207 -2.840395 0.108101 2.083274 1.655640 -0.235139 -0.058031 6.799286 -0.732506 -81.018578 -4.664617 -2.388025 -26.273062 -0.531987 15.640142 6.406705 3.941724 0.013358 -0.440722 -3.410472 -0.379783 76.350349 10.504506 3.268779 33.636292 -0.003667 18.196600 -6.529251 1.783403 0.129786 -45.501194 3.835521 1.995834 77.459702 -0.316361 -3.829582 -29.905546 -0.659118 4.120688 -29.063494 -1.891772 -13.451921 124.356445 -2.120708 4.390605 -32.937302 -6.747560 -2.845490 
0.760250 35.916294 3.339313 2.859176 -5.264728 1.058115 1.206546 2.532576 -1.227265 8.766503 0.319508 -3.382647 0.427835 -3.064055 0.155271 -2.082536 1.362927 1.567277 -3.291318 7.970175 -1.077189 -78.659126 -15.773016 -3.459340 -26.819731 -0.540603 13.621784 4.842696 2.671850 -0.183360 -2.775678 -2.783941 -0.416171 75.035660 -0.964002 2.799485 36.124073 0.040794 18.555044 -9.434979 0.438313 0.079508 -38.621296 3.239593 -1.800860 77.753098 -3.663317 -6.648225 -33.107178 1.436768 4.704162 -53.594711 -1.723756 -17.460855 134.375153 -3.157052 3.514152 -28.563971 -11.906204 -3.820433 
0.781519 36.358597 3.339313 2.602742 -4.222300 4.244736 0.362469 2.674162 -3.676635 6.660895 0.646813 -5.926522 -0.205910 -2.695362 0.468005 -4.679576 0.897774 3.332084 -6.552783 9.034674 -0.942882 -77.212502 -23.587534 -3.006413 -28.903910 -0.519705 14.179199 2.951697 3.152341 -0.119111 -4.312790 -1.923174 -0.742278 73.963783 -11.476068 4.272540 40.806244 0.082841 19.804880 -10.827615 0.038808 0.089016 -28.961193 3.374745 -3.724547 76.921860 -7.121418 -10.266751 -35.962406 1.411835 7.508646 -72.670464 -3.678394 -12.698640 126.577652 -3.189220 2.928020 -20.900324 -11.499816 0.811828 
0.746132 36.110336 3.339313 2.524435 -2.343683 6.636869 -0.253945 1.569964 -5.451769 4.631034 1.519623 -7.934603 -0.881544 -1.755163 0.694189 -3.753155 -1.105021 5.133174 -9.490216 9.533223 -0.275875 -76.479736 -27.192215 -1.312341 -30.467752 -0.462788 15.293427 1.635727 1.669893 0.010774 -5.373642 -1.036692 -0.886421 72.832283 -18.857965 5.827539 43.060909 0.111008 22.108446 -9.992201 1.614005 0.057707 -17.710312 -0.116740 -3.053134 78.356148 -3.227957 -8.516581 -38.647785 0.646786 7.091955 -73.260048 -3.999688 -6.923663 100.764549 -3.351310 2.082390 -16.778606 -10.639250 5.633717 
